# xmcd
#
# Track frame offsets: 
#        150
#        16550
#        54480
#        85080
#
# Disc length: 1432 seconds
#
# Revision: 0
# Processed by: cddbd v1.5.2PL0 Copyright (c) Steve Scherf et al.
# Submitted via: ExactAudioCopyFreeDBPlugin 1.0
#
DISCID=1e059604
DTITLE=Kinky - Forbidden Things
DYEAR=2003
DGENRE=Trance, Progressive Trance
TTITLE0=Forbidden Things (Radio Edit)
TTITLE1=Forbidden Things (Extended)
TTITLE2=Forbidden Things (Special D. Mix)
TTITLE3=Forbidden Things (Club Mix)
EXTD=
EXTT0=
EXTT1=
EXTT2=
EXTT3=
PLAYORDER=
